<?xml version="1.0" standalone="no"?>
<!DOCTYPE svg PUBLIC "-//W3C//DTD SVG 20010904//EN"
 "http://www.w3.org/TR/2001/REC-SVG-20010904/DTD/svg10.dtd">
<svg version="1.0" xmlns="http://www.w3.org/2000/svg"
 width="700.000000pt" height="700.000000pt" viewBox="0 0 700.000000 700.000000"
 preserveAspectRatio="xMidYMid meet">
<metadata>
Created by potrace 1.14, written by Peter Selinger 2001-2017
</metadata>
<g transform="translate(0.000000,700.000000) scale(0.100000,-0.100000)"
fill="#000000" stroke="none">
<path d="M6585 6648 c-115 -38 -217 -72 -225 -75 -8 -3 -19 -7 -25 -9 -5 -1
-66 -20 -135 -42 -174 -56 -598 -191 -825 -264 -104 -33 -264 -84 -355 -114
-354 -113 -834 -267 -1205 -385 -154 -49 -325 -106 -380 -125 -114 -41 -207
-66 -214 -58 -6 6 92 100 379 364 82 75 117 109 133 127 17 20 17 20 -10 16
-24 -4 -127 -24 -143 -28 -3 -1 -32 -7 -65 -14 -117 -24 -503 -123 -695 -177
-339 -96 -796 -255 -1020 -357 -30 -14 -75 -34 -100 -45 -572 -257 -919 -535
-1162 -928 -61 -99 -122 -217 -158 -304 -12 -30 -28 -68 -35 -85 -41 -93 -112
-372 -130 -507 -3 -23 -8 -59 -11 -78 -3 -19 -8 -132 -10 -250 -4 -189 2 -292
22 -420 3 -19 8 -48 10 -65 30 -187 100 -430 181 -625 34 -82 157 -335 173
-355 4 -5 20 -32 35 -60 15 -27 66 -108 113 -179 185 -281 414 -533 677 -745
77 -61 318 -231 329 -231 2 0 35 -19 72 -42 87 -52 338 -174 470 -227 90 -36
289 -103 347 -116 118 -27 209 -46 242 -50 22 -4 54 -8 70 -11 80 -13 125 -16
320 -19 116 -1 242 1 280 6 179 22 184 23 288 45 39 8 81 17 93 20 35 7 237
75 284 96 207 92 327 163 497 295 142 110 284 254 423 429 139 175 354 544
443 759 9 22 30 74 47 115 110 265 238 663 285 890 1 8 8 33 14 55 5 22 12 54
15 70 3 17 14 73 25 125 11 52 22 115 26 140 3 25 8 52 10 60 2 8 7 35 10 60
3 25 10 72 15 105 16 111 31 285 25 285 -3 0 -31 -28 -62 -62 -32 -33 -80 -84
-108 -113 -27 -29 -115 -120 -194 -204 -79 -83 -146 -149 -149 -146 -2 2 9 39
26 82 68 174 185 479 217 566 29 81 100 273 425 1142 45 121 133 355 195 520
62 165 154 410 205 545 50 135 95 254 100 265 5 11 35 87 65 170 31 82 60 154
64 160 19 24 19 55 1 65 -10 6 -20 9 -22 8 -2 -1 -97 -32 -213 -70z"/>
</g>
</svg>
