<svg width="474" height="189" viewBox="0 0 474 189" fill="none" xmlns="http://www.w3.org/2000/svg">
<ellipse cx="77.2827" cy="111.33" rx="69.5541" ry="64.7269" fill="#0081DF"/>
<path d="M86.7104 32.9941C89.141 32.7564 91.3565 31.7327 93.6433 31.002C125.155 20.9457 156.651 10.8381 188.158 0.768228C189.097 0.468402 190.297 -0.43918 190.985 0.256363C191.471 0.747969 190.574 2.02291 190.235 2.92373C180.802 28.0132 171.358 53.1 161.917 78.1868C159.188 85.438 156.462 92.6919 153.736 99.9431C153.521 100.513 153.309 101.086 153.096 101.656C153.2 101.734 153.305 101.814 153.408 101.892C158.289 96.7382 163.17 91.5858 168.339 86.1282C168.085 88.5457 167.924 90.6093 167.645 92.6555C165.966 104.919 163.345 116.968 159.36 128.694C154.991 141.546 149.256 153.69 140.795 164.399C130.01 178.048 116.067 186.12 98.8416 188.361C83.6149 190.341 69.1003 187.656 55.2695 181.218C34.0411 171.337 18.4274 155.618 8.26602 134.493C3.40632 124.39 0.637217 113.684 0.0971011 102.417C-0.643207 87.0033 2.81515 72.7683 11.6572 60.0109C17.2196 51.9858 24.6106 46.0649 33.0415 41.3447C45.4292 34.4095 58.6755 29.6326 72.1972 25.5484C81.7553 22.6623 91.4358 20.2623 101.216 18.2662C101.491 18.2095 101.776 18.2014 102.426 18.1311C101.06 19.429 99.9634 20.4933 98.8442 21.5319C95.2891 24.8326 91.7193 28.1172 88.1696 31.4261C87.6496 31.911 87.0356 32.3229 86.7225 33.0049C86.6419 33.0536 86.3544 32.9914 86.607 33.221C86.6419 33.1454 86.6755 33.0698 86.7104 32.9941ZM16.0681 95.2053C19.5413 87.6503 24.2303 81.0514 30.6002 75.4803C33.1154 82.5721 35.5513 89.437 38.0517 96.4857C42.249 91.7965 46.5578 87.6611 51.4524 84.1806C56.2315 80.7813 61.3008 77.9896 67.0849 76.6917C67.8843 76.5121 68.2323 76.5148 68.1006 77.4926C67.3187 83.3298 66.5649 89.171 65.8152 95.0135C65.2764 99.2206 64.7592 103.43 64.2325 107.639C64.3185 107.671 64.4045 107.703 64.4905 107.737C75.9363 90.0394 87.3809 72.3416 99.074 54.2602C76.6901 54.795 57.8962 62.6391 42.2893 78.3854C40.5453 71.5528 38.8524 64.9499 37.181 58.3402C36.9338 57.3651 36.7336 56.8087 35.6708 57.7527C27.5315 64.9837 21.2973 73.5098 17.9223 83.9821C16.7547 87.6084 16.0789 91.336 16.0681 95.2053ZM80.4736 123.139C80.4911 123.231 80.5099 123.323 80.5273 123.415C80.9761 123.415 81.4248 123.439 81.8709 123.411C89.8302 122.9 97.7868 122.356 105.749 121.893C106.992 121.82 108.812 121.111 109.36 121.961C109.965 122.899 108.953 124.476 108.491 125.725C105.293 134.384 99.5765 141.249 93.0454 147.521C91.7287 148.785 90.3327 149.965 88.8481 151.298C95.3456 153.856 101.643 156.39 107.989 158.795C109.476 159.359 109.221 159.769 108.331 160.662C104.182 164.827 99.5442 168.312 94.3164 170.987C92.7861 171.77 91.2222 172.488 89.3438 173.394C91.8241 173.579 93.8945 173.319 95.9462 172.948C108.515 170.672 118.603 164.041 127.258 154.894C128.012 154.097 128.021 153.715 126.858 153.39C122.698 152.232 118.557 151.003 114.412 149.787C111.988 149.075 109.571 148.338 106.926 147.545C109.896 144.804 112.487 142.147 114.817 139.249C125.595 125.846 131.555 110.559 132.518 93.3334C132.548 92.8108 133.009 92.0815 132.378 91.7749C131.863 91.5237 131.376 92.149 130.91 92.434C120.474 98.7789 110.044 105.136 99.6141 111.489C93.2335 115.372 86.8529 119.256 80.4736 123.139ZM45.0987 152.942C45.8296 153.053 46.6868 152.702 47.4943 152.225C47.8597 152.009 48.4106 151.793 48.0075 151.173C47.681 150.669 47.2847 150.495 46.7204 150.873C46.105 151.285 45.4064 151.434 44.6634 151.405C42.7192 151.33 41.2279 149.737 41.244 147.738C41.2601 145.81 41.9453 145.243 44.3638 145.152C44.6204 145.143 44.881 145.156 45.135 145.121C46.4557 144.933 46.8574 143.958 46.0137 142.937C45.5877 142.421 45.1175 141.934 44.6123 141.496C43.8451 140.829 43.4474 139.384 42.0998 139.846C40.7066 140.322 41.0774 141.753 41.0451 142.805C41.0089 143.984 40.4298 144.496 39.4436 144.733C37.9643 145.09 36.6651 144.731 35.7179 143.506C34.6954 142.185 34.6215 140.721 35.4881 139.312C35.871 138.691 35.8845 138.298 35.3067 137.898C34.6014 137.411 34.4025 138.076 34.162 138.468C33.1396 140.136 33.0133 141.871 33.9376 143.625C34.854 145.361 36.301 146.411 38.2666 146.357C39.5229 146.323 39.7647 146.708 39.7446 147.903C39.6962 150.795 41.9695 152.952 45.0987 152.942ZM28.3484 120.296C28.3108 124.031 31.0812 126.905 34.4374 127.069C35.5513 127.123 35.9248 126.744 35.6856 125.632C34.9682 122.307 34.2547 118.981 33.6206 115.639C33.4136 114.548 32.9595 114.572 32.1386 114.949C29.6852 116.077 28.5634 118.068 28.3484 120.296ZM67.359 160.369C69.4469 160.255 71.3212 159.043 72.5022 156.726C72.9254 155.897 72.8206 155.466 71.8075 155.242C68.4567 154.501 65.1072 153.734 61.7899 152.853C60.5524 152.525 60.5041 153.13 60.488 154C60.4208 157.458 63.3484 160.388 67.359 160.369Z" fill="url(#paint0_linear_688_1437)"/>
<path d="M238.89 164.493C240.296 161.122 241.706 157.754 243.105 154.381C251.731 133.585 260.346 112.787 268.981 91.9947C271.171 86.7208 274.359 84.6395 280.092 84.6382C288.179 84.6368 296.266 84.6341 304.353 84.6395C310.313 84.6436 313.804 87.9133 314.557 93.8085C315.618 102.11 316.867 110.387 318.035 118.675C319.232 127.168 320.426 135.66 321.623 144.152C322.921 153.36 324.225 162.567 325.521 171.777C325.686 172.953 325.694 174.171 326.011 175.303C326.415 176.741 325.745 176.797 324.638 176.793C316.088 176.763 307.537 176.755 298.988 176.801C297.774 176.808 297.293 176.523 297.211 175.202C296.86 169.578 296.371 163.964 295.972 158.343C295.917 157.565 295.691 157.256 294.88 157.258C287.205 157.28 279.531 157.285 271.856 157.251C270.989 157.247 270.74 157.674 270.483 158.371C268.4 164.043 266.255 169.693 264.203 175.377C263.827 176.417 263.355 176.809 262.225 176.804C253.264 176.756 244.301 176.787 235.339 176.75C234.889 176.748 233.849 177.344 234.072 175.943C234.161 175.384 233.547 175.595 233.254 175.668C228.549 176.825 223.77 177.553 218.948 177.907C208.914 178.643 198.903 178.861 189.064 176.115C178.477 173.161 172.709 165.96 170.797 155.327C169.437 147.761 169.836 140.192 170.754 132.616C171.749 124.395 173.184 116.264 175.741 108.377C178.092 101.122 181.548 94.5648 187.887 89.9392C192.642 86.4695 198.091 84.7962 203.797 84.0493C216.857 82.3422 229.871 82.6853 242.773 85.5133C244.373 85.8645 246.536 85.8105 247.349 86.9801C248.164 88.1524 247.138 90.1215 246.889 91.7368C246.14 96.5853 245.346 101.428 244.655 106.286C244.478 107.538 243.989 107.869 242.758 107.814C233.649 107.406 224.533 107.669 215.419 107.54C214.07 107.521 212.742 107.673 211.433 107.942C208.178 108.613 206.116 110.701 204.859 113.7C203.408 117.16 202.755 120.821 202.181 124.5C201.124 131.291 200.08 138.091 199.846 144.971C199.615 151.803 201.708 153.852 208.556 153.898C217.055 153.956 225.543 153.726 234.026 153.211C235.33 153.131 236.973 152.272 237.848 153.24C238.652 154.132 238.099 155.821 238.193 157.156C238.28 158.394 238.389 159.631 238.432 160.871C238.474 162.047 238.441 163.228 238.441 164.405C238.589 164.434 238.74 164.463 238.89 164.493ZM286.501 136.161C288.612 136.161 290.723 136.119 292.831 136.18C293.807 136.207 294.214 135.969 294.118 134.893C293.721 130.468 293.34 126.041 293.05 121.609C292.745 116.976 291.995 112.361 292.43 107.69C292.484 107.12 293.025 106.189 291.749 106.02C289.597 105.735 288.825 106.003 288.537 107.236C287.878 110.048 287.323 112.88 286.297 115.601C283.874 122.023 281.539 128.478 279.123 134.902C278.735 135.934 278.902 136.22 280.016 136.183C282.176 136.11 284.339 136.161 286.501 136.161Z" fill="white"/>
<path d="M402.88 102.387C403.944 99.8848 404.812 97.4092 406.196 95.1578C409.664 89.5151 414.99 86.5412 421.154 84.9961C429.093 83.0054 437.192 82.5678 445.359 82.9162C452.57 83.2242 459.731 83.8562 466.767 85.5228C468.866 86.0198 470.912 86.7343 473.003 87.2651C473.939 87.5028 474.083 88.02 473.966 88.852C473.226 94.1205 472.484 99.3905 471.8 104.666C471.655 105.787 471.171 106.045 470.095 106.031C459.849 105.899 449.603 105.822 439.357 105.744C437.553 105.73 435.766 105.946 433.993 106.291C432.172 106.643 430.849 107.58 430.457 109.497C430.054 111.465 431.227 112.625 432.708 113.519C437.127 116.192 441.922 118.107 446.537 120.385C451.151 122.663 455.896 124.68 460.069 127.792C464.685 131.233 467.623 135.707 468.334 141.444C469.395 150.007 468.162 158.29 464.372 166.046C461.354 172.221 455.902 175.338 449.463 176.79C441.685 178.545 433.786 178.888 425.837 178.453C416.734 177.954 407.704 176.944 398.785 174.984C394.273 173.993 394.333 174.058 395.042 169.384C395.755 164.686 396.365 159.97 396.895 155.247C397.037 153.972 397.565 153.797 398.651 153.813C408.689 153.955 418.716 154.554 428.759 154.476C431.337 154.456 433.911 154.399 436.424 153.764C438.833 153.155 440.034 151.755 440.05 149.759C440.058 148.746 439.701 147.918 438.865 147.372C437.788 146.67 436.701 145.966 435.556 145.389C429.165 142.166 422.699 139.084 416.366 135.75C411.287 133.078 406.813 129.632 404.137 124.303C402.006 120.058 401.569 115.523 401.82 110.869C401.865 110.044 401.947 109.219 402.051 108.397C402.316 106.318 402.325 106.319 400.315 106.319C393.001 106.319 385.687 106.35 378.374 106.286C377.229 106.277 376.866 106.667 376.724 107.714C375.688 115.341 374.618 122.963 373.554 130.586C372.153 140.612 370.745 150.638 369.345 160.664C368.673 165.474 367.969 170.279 367.38 175.098C367.223 176.382 366.82 176.817 365.481 176.806C356.932 176.743 348.381 176.755 339.831 176.794C338.631 176.8 338.269 176.606 338.469 175.245C339.822 166.099 341.059 156.935 342.342 147.78C343.531 139.289 344.739 130.799 345.925 122.308C346.61 117.398 347.223 112.475 347.973 107.574C348.145 106.447 347.83 106.299 346.852 106.303C339.436 106.332 332.018 106.292 324.601 106.345C323.31 106.354 322.859 106.223 323.099 104.694C324.062 98.572 324.87 92.4242 325.684 86.2805C325.847 85.0488 326.258 84.5977 327.613 84.6004C352.955 84.6517 378.296 84.649 403.638 84.6085C405.006 84.6058 405.365 84.8556 405.129 86.2967C404.341 91.1371 403.707 96.0046 403.021 100.861C402.948 101.365 402.926 101.878 402.88 102.387Z" fill="white"/>
<path d="M211.202 43.1609C209.898 46.5063 208.582 49.8476 207.29 53.1983C205.413 58.0644 203.54 62.9319 201.703 67.8128C201.523 68.2909 201.312 68.4841 200.841 68.4827C197.081 68.4787 193.321 68.4678 189.561 68.4881C188.402 68.4949 188.677 67.7169 188.786 67.0997C189.61 62.4214 190.462 57.747 191.303 53.0727C193.224 42.4005 195.159 31.7297 197.057 21.0521C197.769 17.0436 199.091 15.8781 203.162 15.874C207.025 15.87 210.888 15.8592 214.751 15.8781C218.166 15.8956 219.696 17.4677 219.965 20.8401C220.598 28.7747 221.354 36.6998 221.992 44.6344C222.15 46.5886 222.035 48.5659 222.072 50.531C222.078 50.9051 221.843 51.4642 222.389 51.6006C223.1 51.7775 223.04 51.0847 223.149 50.693C226.003 40.3234 229.875 30.2927 233.219 20.0851C234.214 17.0504 235.739 15.9037 238.904 15.8821C243.281 15.8538 247.66 15.8524 252.037 15.8821C255.258 15.9037 256.971 17.6055 256.74 20.832C256.388 25.7278 255.855 30.6114 255.369 35.4964C254.803 41.2039 254.203 46.9087 253.619 52.6149C253.108 57.6012 252.587 62.5861 252.102 67.5751C252.039 68.2234 251.812 68.4908 251.161 68.4881C247.453 68.4746 243.745 68.4651 240.037 68.4976C239.26 68.5043 239.114 68.141 239.05 67.4765C238.677 63.5666 238.262 59.6608 237.871 55.7523C237.45 51.5533 237.038 47.3531 236.34 43.0934C235.608 45.1057 234.871 47.1154 234.145 49.1291C233.217 51.7032 232.303 54.2842 231.368 56.857C230.421 59.465 228.904 60.6008 226.159 60.6481C223.276 60.6967 220.39 60.7021 217.506 60.6494C214.796 60.6008 213.111 59.2529 212.768 56.514C212.214 52.1071 211.897 47.6705 211.48 43.2473C211.386 43.2176 211.295 43.1893 211.202 43.1609Z" fill="white"/>
<path d="M421.889 21.5533C421.345 22.9255 421.341 24.2382 421.19 25.5037C421.071 26.5045 420.705 26.7989 419.736 26.7894C415.616 26.7462 411.494 26.8218 407.374 26.7408C406.139 26.7165 405.83 27.1851 405.677 28.3115C404.412 37.6277 403.083 46.9345 401.778 56.2453C401.269 59.877 400.753 63.5087 400.292 67.1471C400.167 68.1303 399.849 68.5341 398.765 68.5139C394.903 68.4396 391.038 68.4598 387.175 68.5017C386.15 68.5125 385.881 68.2681 386.038 67.1728C387.691 55.6159 389.282 44.051 390.89 32.4888C391.104 30.9546 391.249 29.4055 391.556 27.8888C391.751 26.9272 391.446 26.7489 390.574 26.757C386.453 26.7908 382.333 26.7381 378.212 26.7935C377.038 26.8097 376.601 26.6584 376.866 25.2741C377.361 22.6918 377.623 20.0609 377.914 17.4421C378.044 16.2672 378.469 15.8377 379.746 15.8404C397.465 15.8903 415.186 15.8755 432.905 15.8687C433.7 15.8687 434.352 15.8188 434.619 16.8938C436.175 23.1605 438.129 29.3244 439.482 35.6411C439.815 37.1956 439.812 38.8216 439.963 40.4153C439.995 40.7611 439.899 41.2027 440.401 41.2702C440.892 41.3364 440.966 40.9137 441.059 40.5706C443.449 31.796 449.142 24.696 453.042 16.6885C453.404 15.9457 453.961 15.8593 454.679 15.8633C458.799 15.8849 462.92 15.8674 467.041 15.8849C467.474 15.8863 468.07 15.6378 468.312 16.1064C468.544 16.5589 468.042 16.9424 467.808 17.3206C461.011 28.3007 454.25 39.3038 447.367 50.2299C445.855 52.6285 446.042 55.2783 445.6 57.8336C445.045 61.0371 444.703 64.2798 444.29 67.5077C444.203 68.1951 443.901 68.495 443.191 68.4923C439.019 68.4747 434.846 68.472 430.674 68.4936C429.828 68.4977 429.773 68.0574 429.867 67.4037C430.513 62.905 431.118 58.3995 431.806 53.9061C432.053 52.2868 431.98 50.7877 431.427 49.2035C428.359 40.4261 425.389 31.615 422.382 22.8174C422.253 22.4325 422.09 22.0624 421.889 21.5533Z" fill="white"/>
<path d="M351.274 35.2727C353.282 35.2727 355.295 35.1984 357.3 35.3011C358.44 35.3605 358.841 34.9188 358.979 33.8641C359.591 29.2019 360.293 24.5519 360.871 19.8843C361.367 15.8785 361.312 15.8718 365.358 15.8718C368.398 15.8718 371.438 15.911 374.476 15.8515C375.552 15.8299 375.755 16.177 375.609 17.2034C373.857 29.5301 372.146 41.8621 370.422 54.1914C369.807 58.5916 369.167 62.989 368.58 67.3932C368.466 68.2509 368.075 68.5007 367.261 68.4953C363.244 68.4669 359.225 68.4656 355.208 68.4953C354.302 68.5021 354.087 68.2319 354.224 67.3055C355.221 60.5594 356.14 53.8025 357.129 47.055C357.286 45.9827 356.938 45.7274 355.925 45.7382C351.701 45.7828 347.477 45.7828 343.254 45.7369C342.33 45.7274 342.056 46.0246 341.935 46.9362C341.063 53.4905 340.095 60.0326 339.223 66.5883C339.039 67.9672 338.664 68.602 337.06 68.5331C333.359 68.3751 329.644 68.4467 325.935 68.5048C324.851 68.521 324.613 68.1144 324.753 67.1366C325.621 61.1023 326.466 55.0653 327.314 49.0282C328.413 41.2003 329.507 33.3724 330.603 25.5459C331.011 22.63 331.445 19.7169 331.813 16.7942C331.908 16.0447 332.246 15.8623 332.922 15.865C337.043 15.8826 341.163 15.8961 345.284 15.8569C346.269 15.8475 346.188 16.3175 346.09 17.0225C345.299 22.6503 344.584 28.2889 343.73 33.9059C343.546 35.1174 343.871 35.32 344.938 35.2902C347.048 35.2308 349.162 35.2727 351.274 35.2727Z" fill="white"/>
<path d="M308.771 62.3922C307.188 63.6955 305.829 64.9354 304.351 66.0104C299.859 69.2788 294.841 70.3754 289.426 69.218C285.003 68.2713 282.07 65.5039 280.493 61.247C278.891 56.9251 278.771 52.4291 279.049 47.9249C279.415 41.9825 280.278 36.1021 282.084 30.4054C283.758 25.1274 286.481 20.6138 291.465 17.8073C294.493 16.1015 297.822 15.4127 301.204 15.0724C308.579 14.3296 315.889 14.8077 323.121 16.5053C324.193 16.7565 324.561 17.1793 324.347 18.3002C323.885 20.734 323.49 23.1839 323.153 25.6392C323.001 26.7372 322.666 27.2086 321.417 27.1748C316.733 27.0492 312.045 27.0573 307.359 27.0411C306.228 27.0371 305.084 27.0384 303.968 27.1924C300.152 27.7191 297.814 30.0097 296.568 33.586C295.073 37.87 294.586 42.339 294.106 46.808C293.88 48.9122 293.653 51.0178 294.081 53.1408C294.618 55.8082 296.026 57.044 298.708 57.2682C302.155 57.5572 305.071 56.4241 307.653 54.2037C308.079 53.8364 308.27 53.4528 308.343 52.9004C308.946 48.3436 309.6 43.7936 310.189 39.234C310.295 38.4088 310.572 38.0496 311.43 38.0564C315.189 38.0847 318.95 38.1117 322.709 38.0469C324.107 38.0226 323.881 38.8653 323.769 39.6757C323.118 44.4351 322.446 49.1918 321.782 53.9498C321.205 58.0934 320.577 62.2302 320.077 66.3832C319.899 67.8688 319.541 68.6602 317.789 68.5279C315.382 68.3469 312.951 68.4536 310.531 68.4968C309.651 68.513 309.241 68.305 309.21 67.3137C309.162 65.7376 308.94 64.1642 308.771 62.3922Z" fill="white"/>
<path d="M264.357 68.4848C262.554 68.4848 260.745 68.397 258.95 68.5131C257.574 68.6023 257.118 68.2079 257.338 66.7925C257.949 62.8624 258.465 58.916 259.016 54.9764C260.213 46.4341 261.408 37.8904 262.605 29.348C263.172 25.3071 263.763 21.2689 264.295 17.224C264.423 16.2489 264.724 15.8261 265.815 15.8464C269.676 15.9207 273.54 15.9166 277.403 15.8504C278.588 15.8302 278.779 16.2948 278.632 17.3185C277.45 25.6015 276.289 33.8886 275.127 42.1757C274.029 50.0023 272.914 57.8274 271.857 65.6594C271.476 68.4767 271.541 68.4861 268.683 68.4861C267.241 68.4848 265.798 68.4848 264.357 68.4848Z" fill="white"/>
<defs>
<linearGradient id="paint0_linear_688_1437" x1="114.676" y1="33.5323" x2="157.823" y2="68.1384" gradientUnits="userSpaceOnUse">
<stop stop-color="#28F2FF"/>
<stop offset="1" stop-color="#5CF8B6"/>
</linearGradient>
</defs>
</svg>
