<svg width="100%" height="100%" viewBox="0 0 45 45" fill="none" xmlns="http://www.w3.org/2000/svg">
<path d="M33.0917 41.2108C43.4251 35.3615 47.0604 22.2428 41.2111 11.9093C35.3619 1.57582 22.2432 -2.05938 11.9097 3.78986C1.57617 9.63911 -2.05903 22.7578 3.79021 33.0913C9.63946 43.4248 22.7582 47.06 33.0917 41.2108Z" fill="url(#paint0_linear_675_6482)"/>
<g style="mix-blend-mode:multiply">
<path d="M20.8345 24.1221L16.756 7.00433C16.756 7.00433 10.3102 13.0291 10.7871 22.8527L5.45094 19.8754C5.45094 19.8754 4.65253 26.848 9.26702 31.4368C9.26702 31.4368 7.7764 28.5436 7.96744 24.6167L13.5595 27.1067C13.5595 27.1067 12.8126 21.0381 15.2969 17.3122L20.8345 24.1221Z" fill="#865BFF"/>
</g>
<g style="mix-blend-mode:multiply">
<path d="M24.1027 23.9157L27.7394 7.31106C27.7394 7.31106 34.2943 13.2169 33.9972 23.0476L39.278 19.9732C39.278 19.9732 40.2038 26.93 35.674 31.6025C35.674 31.6025 37.1115 28.6825 36.8487 24.7598L31.3031 27.3516C31.3031 27.3516 31.9388 21.2704 29.3868 17.5905L24.1027 23.9157Z" fill="#865BFF"/>
</g>
<defs>
<linearGradient id="paint0_linear_675_6482" x1="11.3865" y1="42.9438" x2="9.76187" y2="9.73596" gradientUnits="userSpaceOnUse">
<stop stop-color="#28F2FF"/>
<stop offset="1" stop-color="#A4FFE9"/>
</linearGradient>
</defs>
</svg>
