<?xml version="1.0" encoding="utf-8"?>
<!-- Generator: Adobe Illustrator 22.0.0, SVG Export Plug-In . SVG Version: 6.00 Build 0)  -->
<svg version="1.1" id="Layer_1" xmlns="http://www.w3.org/2000/svg" xmlns:xlink="http://www.w3.org/1999/xlink" x="0px" y="0px"
	 viewBox="0 0 474 189" style="enable-background:new 0 0 474 189;" xml:space="preserve">
<style type="text/css">
	.st0{fill:#0081DF;}
	.st1{fill:url(#SVGID_1_);}
	.st2{fill:#FFFFFF;}
</style>
<ellipse class="st0" cx="77.3" cy="109.8" rx="69.6" ry="66.2"/>
<linearGradient id="SVGID_1_" gradientUnits="userSpaceOnUse" x1="89.0626" y1="375.4672" x2="132.2096" y2="410.0733" gradientTransform="matrix(1 0 0 1 0 -310)">
	<stop  offset="0" style="stop-color:#28F2FF"/>
	<stop  offset="1" style="stop-color:#5CF8B6"/>
</linearGradient>
<path class="st1" d="M86.7,33c2.4-0.2,4.6-1.3,6.9-2c31.5-10.1,63-20.2,94.5-30.2c0.9-0.3,2.1-1.2,2.8-0.5c0.5,0.5-0.4,1.8-0.8,2.7
	c-9.4,25.1-18.9,50.2-28.3,75.3c-2.7,7.3-5.5,14.5-8.2,21.8c-0.2,0.6-0.4,1.1-0.6,1.7c0.1,0.1,0.2,0.2,0.3,0.2
	c4.9-5.2,9.8-10.3,14.9-15.8c-0.3,2.4-0.4,4.5-0.7,6.5c-1.7,12.3-4.3,24.3-8.3,36c-4.4,12.9-10.1,25-18.6,35.7
	c-10.8,13.6-24.7,21.7-42,24c-15.2,2-29.7-0.7-43.6-7.1c-21.2-9.9-36.8-25.6-47-46.7c-4.9-10.1-7.6-20.8-8.2-32.1
	C-0.6,87,2.8,72.8,11.7,60c5.6-8,13-13.9,21.4-18.7c12.4-6.9,25.6-11.7,39.2-15.8c9.6-2.9,19.2-5.3,29-7.3c0.3-0.1,0.6-0.1,1.2-0.1
	c-1.4,1.3-2.5,2.4-3.6,3.4c-3.6,3.3-7.1,6.6-10.7,9.9C87.6,31.9,87,32.3,86.7,33c-0.1,0.1-0.4,0-0.1,0.2
	C86.6,33.1,86.7,33.1,86.7,33z M16.1,95.2c3.5-7.6,8.2-14.2,14.5-19.7c2.5,7.1,5,14,7.5,21c4.2-4.7,8.5-8.8,13.4-12.3
	c4.8-3.4,9.8-6.2,15.6-7.5c0.8-0.2,1.1-0.2,1,0.8c-0.8,5.8-1.5,11.7-2.3,17.5c-0.5,4.2-1.1,8.4-1.6,12.6c0.1,0,0.2,0.1,0.3,0.1
	C75.9,90,87.4,72.3,99.1,54.3c-22.4,0.5-41.2,8.4-56.8,24.1c-1.7-6.8-3.4-13.4-5.1-20c-0.2-1-0.4-1.5-1.5-0.6
	C27.5,65,21.3,73.5,17.9,84C16.8,87.6,16.1,91.3,16.1,95.2z M80.5,123.1c0,0.1,0,0.2,0.1,0.3c0.4,0,0.9,0,1.3,0
	c8-0.5,15.9-1.1,23.9-1.5c1.2-0.1,3.1-0.8,3.6,0.1c0.6,0.9-0.4,2.5-0.9,3.8c-3.2,8.7-8.9,15.5-15.4,21.8c-1.3,1.3-2.7,2.4-4.2,3.8
	c6.5,2.6,12.8,5.1,19.1,7.5c1.5,0.6,1.2,1,0.3,1.9c-4.1,4.2-8.8,7.6-14,10.3c-1.5,0.8-3.1,1.5-5,2.4c2.5,0.2,4.6-0.1,6.6-0.4
	c12.6-2.3,22.7-8.9,31.3-18.1c0.8-0.8,0.8-1.2-0.4-1.5c-4.2-1.2-8.3-2.4-12.4-3.6c-2.4-0.7-4.8-1.4-7.5-2.2c3-2.7,5.6-5.4,7.9-8.3
	c10.8-13.4,16.7-28.7,17.7-45.9c0-0.5,0.5-1.3-0.1-1.6c-0.5-0.3-1,0.4-1.5,0.7c-10.4,6.3-20.9,12.7-31.3,19.1
	C93.2,115.4,86.9,119.3,80.5,123.1z M45.1,152.9c0.7,0.1,1.6-0.2,2.4-0.7c0.4-0.2,0.9-0.4,0.5-1.1c-0.3-0.5-0.7-0.7-1.3-0.3
	s-1.3,0.6-2.1,0.5c-1.9-0.1-3.4-1.7-3.4-3.7c0-1.9,0.7-2.5,3.1-2.6c0.3,0,0.5,0,0.8,0c1.3-0.2,1.7-1.2,0.9-2.2
	c-0.4-0.5-0.9-1-1.4-1.4c-0.8-0.7-1.2-2.1-2.5-1.7c-1.4,0.5-1,1.9-1.1,3c0,1.2-0.6,1.7-1.6,1.9c-1.5,0.4-2.8,0-3.7-1.2
	c-1-1.3-1.1-2.8-0.2-4.2c0.4-0.6,0.4-1-0.2-1.4c-0.7-0.5-0.9,0.2-1.1,0.6c-1,1.7-1.1,3.4-0.2,5.2c0.9,1.7,2.4,2.8,4.3,2.7
	c1.3,0,1.5,0.4,1.5,1.5C39.7,150.8,42,153,45.1,152.9z M28.3,120.3c0,3.7,2.7,6.6,6.1,6.8c1.1,0.1,1.5-0.3,1.2-1.4
	c-0.7-3.3-1.4-6.7-2.1-10c-0.2-1.1-0.7-1.1-1.5-0.7C29.7,116.1,28.6,118.1,28.3,120.3z M67.4,160.4c2.1-0.1,4-1.3,5.1-3.6
	c0.4-0.8,0.3-1.3-0.7-1.5c-3.4-0.7-6.7-1.5-10-2.4c-1.2-0.3-1.3,0.3-1.3,1.1C60.4,157.5,63.3,160.4,67.4,160.4z"/>
<path class="st2" d="M238.9,164.5c1.4-3.4,2.8-6.7,4.2-10.1c8.6-20.8,17.2-41.6,25.9-62.4c2.2-5.3,5.4-7.4,11.1-7.4
	c8.1,0,16.2,0,24.3,0c6,0,9.5,3.3,10.2,9.2c1.1,8.3,2.3,16.6,3.5,24.9c1.2,8.5,2.4,17,3.6,25.5c1.3,9.2,2.6,18.4,3.9,27.6
	c0.2,1.2,0.2,2.4,0.5,3.5c0.4,1.4-0.3,1.5-1.4,1.5c-8.5,0-17.1,0-25.6,0c-1.2,0-1.7-0.3-1.8-1.6c-0.4-5.6-0.8-11.2-1.2-16.9
	c-0.1-0.8-0.3-1.1-1.1-1.1c-7.7,0-15.3,0-23,0c-0.9,0-1.1,0.4-1.4,1.1c-2.1,5.7-4.2,11.3-6.3,17c-0.4,1-0.8,1.4-2,1.4
	c-9,0-17.9,0-26.9-0.1c-0.4,0-1.5,0.6-1.3-0.8c0.1-0.6-0.5-0.3-0.8-0.3c-4.7,1.2-9.5,1.9-14.3,2.2c-10,0.7-20,1-29.9-1.8
	c-10.6-3-16.4-10.2-18.3-20.8c-1.4-7.6-1-15.1,0-22.7c1-8.2,2.4-16.4,5-24.2c2.4-7.3,5.8-13.8,12.1-18.4c4.8-3.5,10.2-5.1,15.9-5.9
	c13.1-1.7,26.1-1.4,39,1.5c1.6,0.4,3.8,0.3,4.6,1.5s-0.2,3.1-0.5,4.8c-0.7,4.8-1.5,9.7-2.2,14.5c-0.2,1.3-0.7,1.6-1.9,1.5
	c-9.1-0.4-18.2-0.1-27.3-0.3c-1.3,0-2.7,0.1-4,0.4c-3.3,0.7-5.3,2.8-6.6,5.8c-1.5,3.5-2.1,7.1-2.7,10.8c-1.1,6.8-2.1,13.6-2.3,20.5
	c-0.2,6.8,1.9,8.9,8.7,8.9c8.5,0.1,17-0.2,25.5-0.7c1.3-0.1,2.9-0.9,3.8,0c0.8,0.9,0.3,2.6,0.3,3.9c0.1,1.2,0.2,2.5,0.2,3.7
	s0,2.4,0,3.5C238.6,164.4,238.7,164.5,238.9,164.5z M286.5,136.2c2.1,0,4.2,0,6.3,0c1,0,1.4-0.2,1.3-1.3c-0.4-4.4-0.8-8.9-1.1-13.3
	c-0.3-4.6-1.1-9.2-0.6-13.9c0.1-0.6,0.6-1.5-0.7-1.7c-2.2-0.3-2.9,0-3.2,1.2c-0.7,2.8-1.2,5.6-2.2,8.4c-2.4,6.4-4.8,12.9-7.2,19.3
	c-0.4,1-0.2,1.3,0.9,1.3C282.2,136.1,284.3,136.2,286.5,136.2z"/>
<path class="st2" d="M402.9,102.4c1.1-2.5,1.9-5,3.3-7.2c3.5-5.6,8.8-8.6,15-10.2c7.9-2,16-2.4,24.2-2.1c7.2,0.3,14.4,0.9,21.4,2.6
	c2.1,0.5,4.1,1.2,6.2,1.7c0.9,0.2,1.1,0.8,1,1.6c-0.7,5.3-1.5,10.5-2.2,15.8c-0.1,1.1-0.6,1.4-1.7,1.4c-10.2-0.1-20.5-0.2-30.7-0.3
	c-1.8,0-3.6,0.2-5.4,0.5c-1.8,0.4-3.1,1.3-3.5,3.2c-0.4,2,0.8,3.1,2.3,4c4.4,2.7,9.2,4.6,13.8,6.9c4.6,2.3,9.4,4.3,13.5,7.4
	c4.6,3.4,7.6,7.9,8.3,13.7c1.1,8.6-0.2,16.8-4,24.6c-3,6.2-8.5,9.3-14.9,10.7c-7.8,1.8-15.7,2.1-23.6,1.7
	c-9.1-0.5-18.1-1.5-27.1-3.5c-4.5-1-4.5-0.9-3.7-5.6c0.7-4.7,1.3-9.4,1.9-14.1c0.1-1.3,0.7-1.4,1.8-1.4c10,0.1,20.1,0.7,30.1,0.7
	c2.6,0,5.2-0.1,7.7-0.7c2.4-0.6,3.6-2,3.6-4c0-1-0.3-1.8-1.2-2.4c-1.1-0.7-2.2-1.4-3.3-2c-6.4-3.2-12.9-6.3-19.2-9.6
	c-5.1-2.7-9.6-6.1-12.2-11.4c-2.1-4.2-2.6-8.8-2.3-13.4c0-0.8,0.1-1.7,0.2-2.5c0.3-2.1,0.3-2.1-1.7-2.1c-7.3,0-14.6,0-21.9,0
	c-1.1,0-1.5,0.4-1.6,1.4c-1,7.6-2.1,15.2-3.2,22.9c-1.4,10-2.8,20.1-4.2,30.1c-0.7,4.8-1.4,9.6-2,14.4c-0.2,1.3-0.6,1.7-1.9,1.7
	c-8.5-0.1-17.1-0.1-25.6,0c-1.2,0-1.6-0.2-1.4-1.5c1.4-9.1,2.6-18.3,3.9-27.5c1.2-8.5,2.4-17,3.6-25.5c0.7-4.9,1.3-9.8,2-14.7
	c0.2-1.1-0.1-1.3-1.1-1.3c-7.4,0-14.8,0-22.3,0c-1.3,0-1.7-0.1-1.5-1.7c1-6.1,1.8-12.3,2.6-18.4c0.2-1.2,0.6-1.7,1.9-1.7
	c25.3,0.1,50.7,0,76,0c1.4,0,1.7,0.2,1.5,1.7c-0.8,4.8-1.4,9.7-2.1,14.6C402.9,101.4,402.9,101.9,402.9,102.4z"/>
<path class="st2" d="M211.2,43.2c-1.3,3.3-2.6,6.7-3.9,10c-1.9,4.9-3.8,9.7-5.6,14.6c-0.2,0.5-0.4,0.7-0.9,0.7c-3.8,0-7.5,0-11.3,0
	c-1.2,0-0.9-0.8-0.8-1.4c0.8-4.7,1.7-9.4,2.5-14c1.9-10.7,3.9-21.3,5.8-32c0.7-4,2-5.2,6.1-5.2c3.9,0,7.7,0,11.6,0
	c3.4,0,4.9,1.6,5.2,5c0.6,7.9,1.4,15.9,2,23.8c0.2,2,0,3.9,0.1,5.9c0,0.4-0.2,0.9,0.3,1.1c0.7,0.2,0.7-0.5,0.8-0.9
	c2.9-10.4,6.7-20.4,10.1-30.6c1-3,2.5-4.2,5.7-4.2c4.4,0,8.8,0,13.1,0c3.2,0,4.9,1.7,4.7,4.9c-0.4,4.9-0.9,9.8-1.4,14.7
	c-0.6,5.7-1.2,11.4-1.8,17.1c-0.5,5-1,10-1.5,15c-0.1,0.6-0.3,0.9-0.9,0.9c-3.7,0-7.4,0-11.1,0c-0.8,0-0.9-0.4-1-1
	c-0.4-3.9-0.8-7.8-1.2-11.7c-0.4-4.2-0.8-8.4-1.5-12.7c-0.7,2-1.5,4-2.2,6c-0.9,2.6-1.8,5.2-2.8,7.7c-0.9,2.6-2.5,3.7-5.2,3.8
	c-2.9,0-5.8,0.1-8.7,0c-2.7,0-4.4-1.4-4.7-4.1c-0.6-4.4-0.9-8.8-1.3-13.3C211.4,43.2,211.3,43.2,211.2,43.2z"/>
<path class="st2" d="M421.9,21.6c-0.5,1.4-0.5,2.7-0.7,4c-0.1,1-0.5,1.3-1.5,1.3c-4.1,0-8.2,0-12.4,0c-1.2,0-1.5,0.4-1.7,1.6
	c-1.3,9.3-2.6,18.6-3.9,27.9c-0.5,3.6-1,7.3-1.5,10.9c-0.1,1-0.4,1.4-1.5,1.4c-3.9-0.1-7.7-0.1-11.6,0c-1,0-1.3-0.2-1.1-1.3
	c1.7-11.6,3.2-23.1,4.9-34.7c0.2-1.5,0.4-3.1,0.7-4.6c0.2-1-0.1-1.1-1-1.1c-4.1,0-8.2,0-12.4,0c-1.2,0-1.6-0.1-1.3-1.5
	c0.5-2.6,0.8-5.2,1-7.8c0.1-1.2,0.6-1.6,1.8-1.6c17.7,0,35.4,0,53.2,0c0.8,0,1.4,0,1.7,1c1.6,6.3,3.5,12.4,4.9,18.7
	c0.3,1.6,0.3,3.2,0.5,4.8c0,0.3-0.1,0.8,0.4,0.9c0.5,0.1,0.6-0.4,0.7-0.7c2.4-8.8,8.1-15.9,12-23.9c0.4-0.7,0.9-0.8,1.6-0.8
	c4.1,0,8.2,0,12.4,0c0.4,0,1-0.2,1.3,0.2c0.2,0.5-0.3,0.8-0.5,1.2c-6.8,11-13.6,22-20.4,32.9c-1.5,2.4-1.3,5-1.8,7.6
	c-0.6,3.2-0.9,6.4-1.3,9.7c-0.1,0.7-0.4,1-1.1,1c-4.2,0-8.3,0-12.5,0c-0.8,0-0.9-0.4-0.8-1.1c0.6-4.5,1.3-9,1.9-13.5
	c0.2-1.6,0.2-3.1-0.4-4.7c-3.1-8.8-6-17.6-9-26.4C422.3,22.4,422.1,22.1,421.9,21.6z"/>
<path class="st2" d="M351.3,35.3c2,0,4-0.1,6,0c1.1,0.1,1.5-0.4,1.7-1.4c0.6-4.7,1.3-9.3,1.9-14c0.5-4,0.4-4,4.5-4c3,0,6.1,0,9.1,0
	c1.1,0,1.3,0.3,1.1,1.4c-1.8,12.3-3.5,24.7-5.2,37c-0.6,4.4-1.3,8.8-1.8,13.2c-0.1,0.9-0.5,1.1-1.3,1.1c-4,0-8,0-12.1,0
	c-0.9,0-1.1-0.3-1-1.2c1-6.7,1.9-13.5,2.9-20.3c0.2-1.1-0.2-1.3-1.2-1.3c-4.2,0-8.4,0-12.7,0c-0.9,0-1.2,0.3-1.3,1.2
	c-0.9,6.6-1.8,13.1-2.7,19.7c-0.2,1.4-0.6,2-2.2,1.9c-3.7-0.2-7.4-0.1-11.1,0c-1.1,0-1.3-0.4-1.2-1.4c0.9-6,1.7-12.1,2.6-18.1
	c1.1-7.8,2.2-15.7,3.3-23.5c0.4-2.9,0.8-5.8,1.2-8.8c0.1-0.7,0.4-0.9,1.1-0.9c4.1,0,8.2,0,12.4,0c1,0,0.9,0.5,0.8,1.2
	c-0.8,5.6-1.5,11.3-2.4,16.9c-0.2,1.2,0.1,1.4,1.2,1.4C347,35.2,349.2,35.3,351.3,35.3z"/>
<path class="st2" d="M308.8,62.4c-1.6,1.3-2.9,2.5-4.4,3.6c-4.5,3.3-9.5,4.4-14.9,3.2c-4.4-0.9-7.4-3.7-8.9-8
	c-1.6-4.3-1.7-8.8-1.4-13.3c0.4-5.9,1.2-11.8,3-17.5c1.7-5.3,4.4-9.8,9.4-12.6c3-1.7,6.4-2.4,9.7-2.7c7.4-0.7,14.7-0.3,21.9,1.4
	c1.1,0.3,1.4,0.7,1.2,1.8c-0.5,2.4-0.9,4.9-1.2,7.3c-0.2,1.1-0.5,1.6-1.7,1.5c-4.7-0.1-9.4-0.1-14.1-0.1c-1.1,0-2.3,0-3.4,0.2
	c-3.8,0.5-6.2,2.8-7.4,6.4c-1.5,4.3-2,8.8-2.5,13.2c-0.2,2.1-0.5,4.2,0,6.3c0.5,2.7,1.9,3.9,4.6,4.1c3.4,0.3,6.4-0.8,8.9-3.1
	c0.4-0.4,0.6-0.8,0.7-1.3c0.6-4.6,1.3-9.1,1.8-13.7c0.1-0.8,0.4-1.2,1.2-1.2c3.8,0,7.5,0.1,11.3,0c1.4,0,1.2,0.8,1.1,1.6
	c-0.7,4.8-1.3,9.5-2,14.3c-0.6,4.1-1.2,8.3-1.7,12.4c-0.2,1.5-0.5,2.3-2.3,2.1c-2.4-0.2-4.8-0.1-7.3,0c-0.9,0-1.3-0.2-1.3-1.2
	C309.2,65.7,308.9,64.2,308.8,62.4z"/>
<path class="st2" d="M264.4,68.5c-1.8,0-3.6-0.1-5.4,0c-1.4,0.1-1.8-0.3-1.6-1.7c0.6-3.9,1.1-7.9,1.7-11.8
	c1.2-8.5,2.4-17.1,3.6-25.6c0.6-4,1.2-8.1,1.7-12.1c0.1-1,0.4-1.4,1.5-1.4c3.9,0.1,7.7,0.1,11.6,0c1.2,0,1.4,0.4,1.2,1.5
	c-1.2,8.3-2.3,16.6-3.5,24.9c-1.1,7.8-2.2,15.7-3.3,23.5c-0.4,2.8-0.3,2.8-3.2,2.8C267.2,68.5,265.8,68.5,264.4,68.5z"/>
</svg>
